<svg width="30" height="30" viewBox="0 0 30 30" fill="none" xmlns="http://www.w3.org/2000/svg">
<g id="Frame">
<g id="Molecules">
<g id="Icons">
<g id="dark">
<g id="titles">
<g id="facebook">
<path id="Path-15" d="M29.5161 14.5161C29.5161 6.50032 23.0158 0 15 0C6.9842 0 0.483887 6.50032 0.483887 14.5161C0.483887 22.5319 6.9842 29.0323 15 29.0323C15.0853 29.0323 15.1701 29.0305 15.2552 29.0289V17.7287H12.1365V14.0942H15.2552V11.4196C15.2552 8.31771 17.1488 6.62945 19.9157 6.62945C21.2407 6.62945 22.3797 6.72824 22.7117 6.77232V10.0142H20.8037C19.2984 10.0142 19.0069 10.7296 19.0069 11.7793V14.0942H22.6063L22.1371 17.7287H19.0069V28.4714C25.0744 26.732 29.5161 21.142 29.5161 14.5161Z" fill="white"/>
</g>
</g>
</g>
</g>
</g>
</g>
</svg>
