<svg width="30" height="30" viewBox="0 0 30 30" fill="none" xmlns="http://www.w3.org/2000/svg">
<g clip-path="url(#clip0_8_12734)">
<path d="M29.5147 14.5161C29.5147 6.50032 23.0144 0 14.9986 0C6.98274 0 0.482422 6.50032 0.482422 14.5161C0.482422 22.5319 6.98274 29.0323 14.9986 29.0323C15.0838 29.0323 15.1687 29.0305 15.2537 29.0289V17.7287H12.135V14.0942H15.2537V11.4196C15.2537 8.31771 17.1473 6.62945 19.9143 6.62945C21.2393 6.62945 22.3782 6.72824 22.7102 6.77232V10.0142H20.8023C19.297 10.0142 19.0055 10.7296 19.0055 11.7793V14.0942H22.6048L22.1357 17.7287H19.0055V28.4714C25.073 26.732 29.5147 21.142 29.5147 14.5161Z" fill="#17242B"/>
</g>
<defs>
<clipPath id="clip0_8_12734">
<rect width="30" height="30" fill="white"/>
</clipPath>
</defs>
</svg>
