<?xml version="1.0" encoding="utf-8"?><svg viewBox="0 0 24 25" xmlns="http://www.w3.org/2000/svg" xmlns:xlink="http://www.w3.org/1999/xlink"><style>:root>svg{display:none}:root>svg:target{display:block}</style><svg fill="none" viewBox="0 0 16 17" id="arrow" xmlns="http://www.w3.org/2000/svg"><path d="M6 5.677l4 4-4 4"/></svg><svg fill="none" viewBox="0 0 16 17" id="arrow-str" xmlns="http://www.w3.org/2000/svg"><path d="M6 5.677l4 4-4 4" stroke="#000" stroke-linecap="round" stroke-linejoin="round"/></svg><svg fill="none" viewBox="0 0 24 24" id="arrow2" xmlns="http://www.w3.org/2000/svg"><path d="M6 15l6-6 6 6"/></svg><svg fill="none" viewBox="0 0 24 24" id="call" xmlns="http://www.w3.org/2000/svg"><path d="M20 15.5c-1.25 0-2.45-.2-3.57-.57a1.02 1.02 0 00-1.02.24l-2.2 2.2a15.074 15.074 0 01-6.59-6.58l2.2-2.21c.28-.27.36-.66.25-1.01A11.36 11.36 0 018.5 4c0-.55-.45-1-1-1H4c-.55 0-1 .45-1 1 0 9.39 7.61 17 17 17 .55 0 1-.45 1-1v-3.5c0-.55-.45-1-1-1zM12 3v10l3-3h6V3h-9z" fill="#17242B"/></svg><svg fill="none" viewBox="0 0 24 24" id="camera" xmlns="http://www.w3.org/2000/svg"><path d="M1.984 7.506v6.74c.006 1.524 1.361 2.75 3.014 2.745h10.693c.303 0 .55-.225.55-.498v-6.74c-.009-1.523-1.364-2.75-3.015-2.744H2.531c-.302 0-.547.224-.547.497zm14.936 2.63l4.416-2.963c.383-.292.68-.22.68.309v9.036c0 .6-.363.528-.68.309L16.92 13.87v-3.734z" fill="#17242B"/></svg><svg fill="none" viewBox="0 0 10 10" id="check" xmlns="http://www.w3.org/2000/svg"><path d="M8.333 2.5L3.749 7.083 1.666 5" stroke="#000" stroke-linecap="round" stroke-linejoin="round"/></svg><svg viewBox="0 0 24 25" id="clock" xmlns="http://www.w3.org/2000/svg"><path d="M12 3.5c-4.95 0-9 4.05-9 9s4.05 9 9 9 9-4.05 9-9-4.05-9-9-9zm3.78 12.78L11.1 13.4V8h1.35v4.68l4.05 2.43-.72 1.17z" opacity=".5"/></svg><svg fill="none" viewBox="0 0 12 11" id="close" xmlns="http://www.w3.org/2000/svg"><path d="M1 .5l10 9.9M1 10.5L11 .6" stroke="#17242B"/></svg><svg fill="none" viewBox="0 0 24 24" id="earphones" xmlns="http://www.w3.org/2000/svg"><path d="M12 2C6.486 2 2 6.486 2 12v4.143C2 17.167 2.897 18 4 18h1a1 1 0 001-1v-5.143a1 1 0 00-1-1h-.908C4.648 6.987 7.978 4 12 4s7.352 2.987 7.908 6.857H19a1 1 0 00-1 1V18c0 1.103-.897 2-2 2h-2v-1h-4v3h6c2.206 0 4-1.794 4-4 1.103 0 2-.833 2-1.857V12c0-5.514-4.486-10-10-10z" fill="#17242B"/></svg><svg fill="none" viewBox="0 0 24 24" id="flag" xmlns="http://www.w3.org/2000/svg"><g clip-path="url(#jclip0_14_1708)"><path d="M20.339 3.234H3.66a.994.994 0 00-.994.994V18.24c0 .356.192.684.502.863l5.653 3.23 2.686 1.537c.304.173.68.173.984 0l2.686-1.538 5.653-3.23a.997.997 0 00.502-.862V4.23a.994.994 0 00-.994-.995z" fill="#012169"/><path d="M13.64 12.038h-.098v11.231l1.06-.605v-4.43l1.977 3.296.746-.427-2.724-4.551v-2.93l4.041 6.731.745-.426-4.2-6.99h6.146v-.9H13.64zM15.187 8.517v-.023l3.16-5.26h-1.008L14.6 7.795h-.014V4.88l.99-1.646h-2.035v6.159H21.333v-.876h-6.146zM8.358 3.234l.98 1.646v2.93L6.6 3.233H5.597l3.154 5.26H2.667v.9h7.73v-6.16H8.358zM9.29 12.038H2.667v.9h6.084l-4.18 6.965.75.427 4.016-6.708v2.93l-2.71 4.528.746.426 1.964-3.286v4.407l1.06.609V12.038H9.29z" fill="#F2F2F2"/><path d="M14.602 16.552l2.723 4.551 1.317-.75-4.04-6.73v2.929zM9.337 7.81V4.88l-.98-1.646H6.6L9.337 7.81zM17.339 3.234h-1.763l-.989 1.646v2.915h.014l2.738-4.56zM6.628 21.08l2.71-4.528v-2.93L5.32 20.33l1.308.75z" fill="#C8102E"/><path d="M14.648 9.394h-1.101v-6.16H10.4v6.164H2.667v2.644H10.397v11.199l1.11.637c.305.174.68.174.985 0l1.05-.6V12.033H21.328V9.389h-6.68v.005z" fill="#C8102E"/></g><defs><clipPath id="jclip0_14_1708"><path fill="#fff" d="M0 0h24v24H0z"/></clipPath></defs></svg><svg fill="none" viewBox="0 0 24 24" id="info" xmlns="http://www.w3.org/2000/svg"><path d="M12 2.25A9.75 9.75 0 1021.75 12 9.76 9.76 0 0012 2.25zm-.375 4.5a1.125 1.125 0 110 2.25 1.125 1.125 0 010-2.25zm1.125 10.5a1.5 1.5 0 01-1.5-1.5V12a.75.75 0 110-1.5 1.5 1.5 0 011.5 1.5v3.75a.75.75 0 110 1.5z" fill="#17242B"/></svg><svg viewBox="0 0 22 22" id="instagram" xmlns="http://www.w3.org/2000/svg"><path d="M19.201 7.613a5.989 5.989 0 00-.384-2.031 4.227 4.227 0 00-2.413-2.414 6.056 6.056 0 00-2.004-.385c-.882-.04-1.162-.05-3.4-.05-2.239 0-2.525 0-3.4.05a6.056 6.056 0 00-2.004.385 4.223 4.223 0 00-2.413 2.414 6.008 6.008 0 00-.384 2.003c-.04.882-.052 1.162-.052 3.4 0 2.239 0 2.525.052 3.401.013.686.143 1.362.384 2.005a4.225 4.225 0 002.414 2.413c.64.25 1.317.39 2.003.412.883.04 1.162.051 3.4.051 2.24 0 2.526 0 3.402-.05a6.041 6.041 0 002.004-.385 4.23 4.23 0 002.413-2.414c.241-.641.37-1.318.384-2.004.04-.882.052-1.162.052-3.401-.002-2.239-.002-2.523-.054-3.4zm-8.207 7.606a4.237 4.237 0 01-4.237-4.238 4.237 4.237 0 114.237 4.238zm4.407-7.645a.987.987 0 11-.002-1.974.987.987 0 01.002 1.974z"/><path d="M10.994 13.733a2.753 2.753 0 100-5.505 2.753 2.753 0 000 5.505z"/></svg><svg fill="none" viewBox="0 0 24 24" id="linkedin" xmlns="http://www.w3.org/2000/svg"><path d="M19.65 3H4.35C3.6 3 3 3.6 3 4.275V19.65c0 .675.6 1.275 1.35 1.275h15.3c.75 0 1.35-.6 1.35-1.275V4.275C21 3.6 20.4 3 19.65 3zM8.325 18.3H5.7V9.75h2.625v8.55zM7.05 8.55a1.584 1.584 0 01-1.575-1.575c0-.9.675-1.575 1.575-1.575.825 0 1.575.675 1.575 1.575 0 .9-.75 1.575-1.575 1.575zm11.325 9.675H15.75v-4.2c0-.975 0-2.325-1.425-2.325s-1.575 1.125-1.575 2.175v4.275h-2.625v-8.4H12.6v1.125h.075c.375-.675 1.275-1.425 2.55-1.425 2.7 0 3.225 1.8 3.225 4.125v4.65h-.075z" fill="#3B2505"/></svg><svg fill="none" viewBox="0 0 24 11" id="menu" xmlns="http://www.w3.org/2000/svg"><path d="M0 1.5h24M0 5.5h24M0 9.5h24" stroke="#17242B"/></svg><svg fill="none" viewBox="0 0 24 24" id="nav-arrow" xmlns="http://www.w3.org/2000/svg"><path d="M18.706 12H6m0 0l6-6m-6 6l6 6"/></svg><svg viewBox="0 0 24 25" id="phone" xmlns="http://www.w3.org/2000/svg"><path d="M7.816 11.059a11.782 11.782 0 005.125 5.125l1.711-1.71c.21-.21.521-.28.794-.187a8.874 8.874 0 002.776.443.78.78 0 01.778.778v2.714a.78.78 0 01-.778.778C10.92 19 5 13.081 5 5.778A.78.78 0 015.778 5H8.5a.78.78 0 01.778.778c0 .972.155 1.905.443 2.776a.78.78 0 01-.194.794l-1.711 1.71z"/></svg><svg fill="none" viewBox="0 0 24 24" id="search" xmlns="http://www.w3.org/2000/svg"><path d="M17 17l4 4M3 11a8 8 0 1016 0 8 8 0 00-16 0z"/></svg><svg fill="none" viewBox="0 0 24 24" id="search-str" xmlns="http://www.w3.org/2000/svg"><path d="M17 17l4 4M3 11a8 8 0 1016 0 8 8 0 00-16 0z" stroke="#fff" stroke-linecap="round" stroke-linejoin="round"/></svg><svg fill="none" viewBox="0 0 21 20" id="telegram" xmlns="http://www.w3.org/2000/svg"><path d="M17.874 4.167l-15.833 6.25 5.833.833m10-7.083l-2.083 12.5-7.917-5.417m10-7.083l-10 7.083m0 0v4.583l2.708-2.73"/></svg><svg fill="none" viewBox="0 0 24 24" id="telegram-color" xmlns="http://www.w3.org/2000/svg"><path d="M12 2C6.48 2 2 6.48 2 12s4.48 10 10 10 10-4.48 10-10S17.52 2 12 2zm4.64 6.8c-.15 1.58-.8 5.42-1.13 7.19-.14.75-.42 1-.68 1.03-.58.05-1.02-.38-1.58-.75-.88-.58-1.38-.94-2.23-1.5-.99-.65-.35-1.01.22-1.59.15-.15 2.71-2.48 2.76-2.69a.2.2 0 00-.05-.18c-.06-.05-.14-.03-.21-.02-.09.02-1.49.95-4.22 2.79-.4.27-.76.41-1.08.4-.36-.01-1.04-.2-1.55-.37-.63-.2-1.12-.31-1.08-.66.02-.18.27-.36.74-.55 2.92-1.27 4.86-2.11 5.83-2.51 2.78-1.16 3.35-1.36 3.73-1.36.08 0 .27.02.39.12.1.08.13.19.14.27-.01.06.01.24 0 .38z" fill="#229ED9"/></svg><svg viewBox="0 0 19 19" id="whatsapp" xmlns="http://www.w3.org/2000/svg"><path d="M14.787 4.464A7.362 7.362 0 009.53 2.28c-4.095 0-7.433 3.338-7.433 7.433 0 1.312.345 2.587.99 3.712l-1.05 3.855 3.938-1.035a7.434 7.434 0 003.555.908c4.095 0 7.432-3.338 7.432-7.433a7.386 7.386 0 00-2.175-5.257zM9.53 15.894c-1.11 0-2.198-.3-3.15-.863l-.225-.135-2.34.615.622-2.28-.15-.232a6.198 6.198 0 01-.945-3.285 6.19 6.19 0 016.18-6.18c1.65 0 3.203.645 4.365 1.815a6.138 6.138 0 011.808 4.372c.015 3.405-2.76 6.173-6.165 6.173zm3.39-4.62c-.188-.09-1.103-.54-1.268-.608-.172-.06-.292-.09-.42.09-.127.188-.48.608-.585.728-.105.127-.217.142-.405.045-.187-.09-.787-.293-1.492-.923-.555-.495-.923-1.102-1.035-1.29-.105-.187-.015-.285.082-.382.083-.083.188-.218.278-.323.09-.105.127-.187.187-.307.06-.128.03-.233-.015-.323s-.42-1.005-.57-1.38c-.15-.36-.307-.315-.42-.322h-.36a.674.674 0 00-.495.232c-.165.188-.645.638-.645 1.553 0 .915.668 1.8.758 1.92.09.127 1.312 2.002 3.172 2.805.443.195.788.307 1.058.39.442.142.847.12 1.17.075.36-.053 1.102-.45 1.252-.885.158-.435.158-.803.105-.885-.052-.083-.165-.12-.352-.21z"/></svg><svg fill="none" viewBox="0 0 24 24" id="whatsapp-color" xmlns="http://www.w3.org/2000/svg"><path d="M19.05 4.91A9.816 9.816 0 0012.04 2c-5.46 0-9.91 4.45-9.91 9.91 0 1.75.46 3.45 1.32 4.95L2.05 22l5.25-1.38c1.45.79 3.08 1.21 4.74 1.21 5.46 0 9.91-4.45 9.91-9.91 0-2.65-1.03-5.14-2.9-7.01zm-7.01 15.24c-1.48 0-2.93-.4-4.2-1.15l-.3-.18-3.12.82.83-3.04-.2-.31a8.264 8.264 0 01-1.26-4.38c0-4.54 3.7-8.24 8.24-8.24 2.2 0 4.27.86 5.82 2.42a8.183 8.183 0 012.41 5.83c.02 4.54-3.68 8.23-8.22 8.23zm4.52-6.16c-.25-.12-1.47-.72-1.69-.81-.23-.08-.39-.12-.56.12-.17.25-.64.81-.78.97-.14.17-.29.19-.54.06-.25-.12-1.05-.39-1.99-1.23-.74-.66-1.23-1.47-1.38-1.72-.14-.25-.02-.38.11-.51.11-.11.25-.29.37-.43s.17-.25.25-.41c.08-.17.04-.31-.02-.43s-.56-1.34-.76-1.84c-.2-.48-.41-.42-.56-.43h-.48c-.17 0-.43.06-.66.31-.22.25-.86.85-.86 2.07 0 1.22.89 2.4 1.01 2.56.12.17 1.75 2.67 4.23 3.74.59.26 1.05.41 1.41.52.59.19 1.13.16 1.56.1.48-.07 1.47-.6 1.67-1.18.21-.58.21-1.07.14-1.18-.07-.11-.22-.16-.47-.28z" fill="#2BB741"/></svg></svg>