<?xml version="1.0" encoding="utf-8"?><svg viewBox="0 0 24 25" xmlns="http://www.w3.org/2000/svg" xmlns:xlink="http://www.w3.org/1999/xlink"><style>:root>svg{display:none}:root>svg:target{display:block}</style><svg fill="none" viewBox="0 0 16 17" id="arrow" xmlns="http://www.w3.org/2000/svg"><path d="M6 5.677l4 4-4 4"/></svg><svg viewBox="0 0 24 25" id="clock" xmlns="http://www.w3.org/2000/svg"><path d="M12 3.5c-4.95 0-9 4.05-9 9s4.05 9 9 9 9-4.05 9-9-4.05-9-9-9zm3.78 12.78L11.1 13.4V8h1.35v4.68l4.05 2.43-.72 1.17z" opacity=".5"/></svg><svg fill="none" viewBox="0 0 12 11" id="close" xmlns="http://www.w3.org/2000/svg"><path d="M1 .5l10 9.9M1 10.5L11 .6" stroke="#17242B"/></svg><svg fill="none" viewBox="0 0 24 24" id="flag" xmlns="http://www.w3.org/2000/svg"><g clip-path="url(#dclip0_14_1708)"><path d="M20.339 3.234H3.66a.994.994 0 00-.994.994V18.24c0 .356.192.684.502.863l5.653 3.23 2.686 1.537c.304.173.68.173.984 0l2.686-1.538 5.653-3.23a.997.997 0 00.502-.862V4.23a.994.994 0 00-.994-.995z" fill="#012169"/><path d="M13.64 12.038h-.098v11.231l1.06-.605v-4.43l1.977 3.296.746-.427-2.724-4.551v-2.93l4.041 6.731.745-.426-4.2-6.99h6.146v-.9H13.64zM15.187 8.517v-.023l3.16-5.26h-1.008L14.6 7.795h-.014V4.88l.99-1.646h-2.035v6.159H21.333v-.876h-6.146zM8.358 3.234l.98 1.646v2.93L6.6 3.233H5.597l3.154 5.26H2.667v.9h7.73v-6.16H8.358zM9.29 12.038H2.667v.9h6.084l-4.18 6.965.75.427 4.016-6.708v2.93l-2.71 4.528.746.426 1.964-3.286v4.407l1.06.609V12.038H9.29z" fill="#F2F2F2"/><path d="M14.602 16.552l2.723 4.551 1.317-.75-4.04-6.73v2.929zM9.337 7.81V4.88l-.98-1.646H6.6L9.337 7.81zM17.339 3.234h-1.763l-.989 1.646v2.915h.014l2.738-4.56zM6.628 21.08l2.71-4.528v-2.93L5.32 20.33l1.308.75z" fill="#C8102E"/><path d="M14.648 9.394h-1.101v-6.16H10.4v6.164H2.667v2.644H10.397v11.199l1.11.637c.305.174.68.174.985 0l1.05-.6V12.033H21.328V9.389h-6.68v.005z" fill="#C8102E"/></g><defs><clipPath id="dclip0_14_1708"><path fill="#fff" d="M0 0h24v24H0z"/></clipPath></defs></svg><svg viewBox="0 0 22 22" id="instagram" xmlns="http://www.w3.org/2000/svg"><path d="M19.201 7.613a5.989 5.989 0 00-.384-2.031 4.227 4.227 0 00-2.413-2.414 6.056 6.056 0 00-2.004-.385c-.882-.04-1.162-.05-3.4-.05-2.239 0-2.525 0-3.4.05a6.056 6.056 0 00-2.004.385 4.223 4.223 0 00-2.413 2.414 6.008 6.008 0 00-.384 2.003c-.04.882-.052 1.162-.052 3.4 0 2.239 0 2.525.052 3.401.013.686.143 1.362.384 2.005a4.225 4.225 0 002.414 2.413c.64.25 1.317.39 2.003.412.883.04 1.162.051 3.4.051 2.24 0 2.526 0 3.402-.05a6.041 6.041 0 002.004-.385 4.23 4.23 0 002.413-2.414c.241-.641.37-1.318.384-2.004.04-.882.052-1.162.052-3.401-.002-2.239-.002-2.523-.054-3.4zm-8.207 7.606a4.237 4.237 0 01-4.237-4.238 4.237 4.237 0 114.237 4.238zm4.407-7.645a.987.987 0 11-.002-1.974.987.987 0 01.002 1.974z"/><path d="M10.994 13.733a2.753 2.753 0 100-5.505 2.753 2.753 0 000 5.505z"/></svg><svg fill="none" viewBox="0 0 24 11" id="menu" xmlns="http://www.w3.org/2000/svg"><path d="M0 1.5h24M0 5.5h24M0 9.5h24" stroke="#17242B"/></svg><svg viewBox="0 0 24 25" id="phone" xmlns="http://www.w3.org/2000/svg"><path d="M7.816 11.059a11.782 11.782 0 005.125 5.125l1.711-1.71c.21-.21.521-.28.794-.187a8.874 8.874 0 002.776.443.78.78 0 01.778.778v2.714a.78.78 0 01-.778.778C10.92 19 5 13.081 5 5.778A.78.78 0 015.778 5H8.5a.78.78 0 01.778.778c0 .972.155 1.905.443 2.776a.78.78 0 01-.194.794l-1.711 1.71z"/></svg><svg fill="none" viewBox="0 0 24 24" id="search" xmlns="http://www.w3.org/2000/svg"><path d="M17 17l4 4M3 11a8 8 0 1016 0 8 8 0 00-16 0z"/></svg><svg fill="none" viewBox="0 0 24 24" id="search-str" xmlns="http://www.w3.org/2000/svg"><path d="M17 17l4 4M3 11a8 8 0 1016 0 8 8 0 00-16 0z" stroke="#fff" stroke-linecap="round" stroke-linejoin="round"/></svg></svg>