<svg width="31" height="30" viewBox="0 0 31 30" fill="none" xmlns="http://www.w3.org/2000/svg">
<g clip-path="url(#clip0_8_10228)">
<rect x="0.5" width="30" height="30" rx="15" fill="white"/>
<path d="M23.7022 11.6128C23.693 10.9185 23.563 10.2311 23.3181 9.58142C23.1058 9.03339 22.7815 8.53569 22.3659 8.1201C21.9503 7.70451 21.4526 7.38019 20.9045 7.16784C20.2632 6.92708 19.5856 6.7969 18.9007 6.78284C18.0189 6.74342 17.7393 6.73242 15.5008 6.73242C13.2623 6.73242 12.9754 6.73242 12.1 6.78284C11.4154 6.797 10.7381 6.92718 10.097 7.16784C9.54893 7.38004 9.05115 7.70431 8.63554 8.11992C8.21994 8.53552 7.89566 9.03331 7.68346 9.58142C7.44223 10.2223 7.31233 10.8997 7.29938 11.5843C7.25996 12.4671 7.24805 12.7467 7.24805 14.9852C7.24805 17.2237 7.24805 17.5097 7.29938 18.386C7.31313 19.0717 7.44238 19.7482 7.68346 20.3908C7.89602 20.9387 8.22053 21.4363 8.63628 21.8517C9.05202 22.2671 9.54986 22.5913 10.098 22.8034C10.7373 23.0539 11.4146 23.1934 12.1009 23.2159C12.9836 23.2553 13.2632 23.2673 15.5017 23.2673C17.7402 23.2673 18.0271 23.2673 18.9025 23.2159C19.5874 23.2024 20.265 23.0726 20.9064 22.8318C21.4543 22.6192 21.9518 22.2948 22.3674 21.8793C22.783 21.4637 23.1074 20.9661 23.32 20.4183C23.561 19.7766 23.6903 19.1001 23.704 18.4135C23.7435 17.5317 23.7554 17.2521 23.7554 15.0127C23.7535 12.7742 23.7535 12.49 23.7022 11.6128ZM15.4953 19.2183C13.1541 19.2183 11.2575 17.3218 11.2575 14.9806C11.2575 12.6394 13.1541 10.7428 15.4953 10.7428C16.6192 10.7428 17.6971 11.1893 18.4918 11.984C19.2866 12.7788 19.733 13.8567 19.733 14.9806C19.733 16.1045 19.2866 17.1824 18.4918 17.9771C17.6971 18.7719 16.6192 19.2183 15.4953 19.2183ZM19.9017 11.5743C19.7719 11.5744 19.6434 11.5489 19.5234 11.4993C19.4035 11.4497 19.2945 11.3769 19.2027 11.2851C19.1109 11.1933 19.0381 11.0843 18.9885 10.9644C18.9389 10.8444 18.9134 10.7159 18.9135 10.5861C18.9135 10.4564 18.9391 10.3279 18.9887 10.2081C19.0384 10.0883 19.1111 9.97939 19.2028 9.88767C19.2946 9.79596 19.4034 9.7232 19.5233 9.67357C19.6431 9.62393 19.7715 9.59838 19.9013 9.59838C20.031 9.59838 20.1594 9.62393 20.2792 9.67357C20.3991 9.7232 20.508 9.79596 20.5997 9.88767C20.6914 9.97939 20.7641 10.0883 20.8138 10.2081C20.8634 10.3279 20.889 10.4564 20.889 10.5861C20.889 11.1324 20.4471 11.5743 19.9017 11.5743Z" fill="#17242B"/>
<path d="M15.4949 17.733C17.0152 17.733 18.2477 16.5006 18.2477 14.9803C18.2477 13.46 17.0152 12.2275 15.4949 12.2275C13.9746 12.2275 12.7422 13.46 12.7422 14.9803C12.7422 16.5006 13.9746 17.733 15.4949 17.733Z" fill="#17242B"/>
</g>
<defs>
<clipPath id="clip0_8_10228">
<rect width="30" height="30" fill="white" transform="translate(0.5)"/>
</clipPath>
</defs>
</svg>
