<svg width="30" height="30" viewBox="0 0 30 30" fill="none" xmlns="http://www.w3.org/2000/svg">
<g clip-path="url(#clip0_8_12729)">
<rect width="30" height="30" rx="15" fill="#17242B"/>
<path d="M23.2022 11.6129C23.193 10.9187 23.063 10.2313 22.8181 9.58161C22.6058 9.03358 22.2815 8.53587 21.8659 8.12028C21.4503 7.7047 20.9526 7.38037 20.4045 7.16802C19.7632 6.92727 19.0856 6.79708 18.4007 6.78302C17.5189 6.74361 17.2393 6.7326 15.0008 6.7326C12.7623 6.7326 12.4754 6.73261 11.6 6.78302C10.9154 6.79719 10.2381 6.92737 9.59705 7.16802C9.04893 7.38022 8.55115 7.7045 8.13554 8.1201C7.71994 8.53571 7.39566 9.03349 7.18346 9.58161C6.94223 10.2225 6.81233 10.8999 6.79938 11.5845C6.75996 12.4673 6.74805 12.7469 6.74805 14.9854C6.74805 17.2239 6.74805 17.5099 6.79938 18.3862C6.81313 19.0719 6.94238 19.7484 7.18346 20.3909C7.39602 20.9389 7.72053 21.4365 8.13628 21.8519C8.55202 22.2673 9.04986 22.5915 9.59796 22.8036C10.2373 23.054 10.9146 23.1935 11.6009 23.2161C12.4836 23.2555 12.7632 23.2674 15.0017 23.2674C17.2402 23.2674 17.5271 23.2674 18.4025 23.2161C19.0874 23.2026 19.765 23.0727 20.4064 22.832C20.9543 22.6194 21.4518 22.295 21.8674 21.8795C22.283 21.4639 22.6074 20.9663 22.82 20.4184C23.061 19.7768 23.1903 19.1003 23.204 18.4137C23.2435 17.5319 23.2554 17.2523 23.2554 15.0129C23.2535 12.7744 23.2535 12.4902 23.2022 11.6129ZM14.9953 19.2185C12.6541 19.2185 10.7575 17.3219 10.7575 14.9808C10.7575 12.6396 12.6541 10.743 14.9953 10.743C16.1192 10.743 17.1971 11.1895 17.9918 11.9842C18.7866 12.779 19.233 13.8569 19.233 14.9808C19.233 16.1047 18.7866 17.1826 17.9918 17.9773C17.1971 18.772 16.1192 19.2185 14.9953 19.2185ZM19.4017 11.5744C19.2719 11.5746 19.1434 11.5491 19.0234 11.4995C18.9035 11.4498 18.7945 11.3771 18.7027 11.2853C18.6109 11.1935 18.5381 11.0845 18.4885 10.9646C18.4389 10.8446 18.4134 10.7161 18.4135 10.5863C18.4135 10.4566 18.4391 10.3281 18.4887 10.2083C18.5384 10.0885 18.6111 9.97957 18.7028 9.88786C18.7946 9.79614 18.9034 9.72339 19.0233 9.67375C19.1431 9.62411 19.2715 9.59856 19.4013 9.59856C19.531 9.59856 19.6594 9.62411 19.7792 9.67375C19.8991 9.72339 20.008 9.79614 20.0997 9.88786C20.1914 9.97957 20.2641 10.0885 20.3138 10.2083C20.3634 10.3281 20.389 10.4566 20.389 10.5863C20.389 11.1326 19.9471 11.5744 19.4017 11.5744Z" fill="white"/>
<path d="M14.9949 17.7335C16.5152 17.7335 17.7477 16.5011 17.7477 14.9808C17.7477 13.4605 16.5152 12.228 14.9949 12.228C13.4746 12.228 12.2422 13.4605 12.2422 14.9808C12.2422 16.5011 13.4746 17.7335 14.9949 17.7335Z" fill="white"/>
</g>
<defs>
<clipPath id="clip0_8_12729">
<rect width="30" height="30" fill="white"/>
</clipPath>
</defs>
</svg>
