<svg width="30" height="30" viewBox="0 0 30 30" fill="none" xmlns="http://www.w3.org/2000/svg">
<g clip-path="url(#clip0_31_7)">
<rect width="30" height="30" rx="15" fill="white"/>
<path d="M21.6666 8.33331H8.33329C7.41663 8.33331 6.67496 9.08331 6.67496 9.99998L6.66663 20C6.66663 20.9166 7.41663 21.6666 8.33329 21.6666H21.6666C22.5833 21.6666 23.3333 20.9166 23.3333 20V9.99998C23.3333 9.08331 22.5833 8.33331 21.6666 8.33331ZM21.3333 11.875L15.4416 15.5583C15.175 15.725 14.825 15.725 14.5583 15.5583L8.66663 11.875C8.58307 11.8281 8.50989 11.7647 8.45153 11.6887C8.39317 11.6127 8.35084 11.5256 8.32711 11.4328C8.30337 11.3399 8.29871 11.2433 8.31342 11.1486C8.32813 11.0539 8.36191 10.9632 8.41269 10.8819C8.46348 10.8006 8.53023 10.7305 8.6089 10.6758C8.68757 10.6211 8.77652 10.5829 8.87037 10.5636C8.96423 10.5442 9.06103 10.5441 9.15492 10.5633C9.24881 10.5824 9.33785 10.6204 9.41663 10.675L15 14.1666L20.5833 10.675C20.6621 10.6204 20.7511 10.5824 20.845 10.5633C20.9389 10.5441 21.0357 10.5442 21.1295 10.5636C21.2234 10.5829 21.3124 10.6211 21.391 10.6758C21.4697 10.7305 21.5364 10.8006 21.5872 10.8819C21.638 10.9632 21.6718 11.0539 21.6865 11.1486C21.7012 11.2433 21.6966 11.3399 21.6728 11.4328C21.6491 11.5256 21.6067 11.6127 21.5484 11.6887C21.49 11.7647 21.4169 11.8281 21.3333 11.875Z" fill="#17242B"/>
</g>
<defs>
<clipPath id="clip0_31_7">
<rect width="30" height="30" fill="white"/>
</clipPath>
</defs>
</svg>
