<svg width="24" height="25" viewBox="0 0 24 25" fill="none" xmlns="http://www.w3.org/2000/svg">
<rect y="0.5" width="24" height="24" rx="12" fill="white"/>
<g clip-path="url(#clip0_14_1672)">
<path fill-rule="evenodd" clip-rule="evenodd" d="M12.0674 21.5C10.2257 21.5 8.5181 20.9457 7.08028 20.0098L3.60627 21.1108L4.72947 17.7638C3.64393 16.2962 3 14.454 3 12.4849C3 12.1929 3.02224 11.916 3.05991 11.624C3.50187 7.06405 7.38018 3.5 12.0674 3.5C16.7547 3.5 20.7453 7.16127 21.1119 11.7886C21.127 12.0283 21.127 12.2679 21.127 12.4849C21.127 17.4491 17.0618 21.5 12.0674 21.5Z" fill="#17242B"/>
<path fill-rule="evenodd" clip-rule="evenodd" d="M15.212 13.7052C14.9494 13.6377 14.7851 13.5778 14.5979 13.8551C14.3281 14.282 13.7591 15.218 13.2052 14.9407C12.9283 14.8133 12.0824 14.5364 11.0715 13.6377C10.2851 12.9339 9.7463 12.088 9.60353 11.8333C9.37178 11.3989 10.105 10.9422 10.3748 10.3958C10.4645 10.2161 10.4272 10.0665 10.3526 9.93916C10.3002 9.81181 9.76854 8.50923 9.54397 7.99229C9.32658 7.46064 9.10201 7.55069 8.95995 7.55069C7.492 7.55069 6.80322 8.59138 6.80322 10.0514C6.80322 10.3435 6.86349 10.6581 6.95317 10.935C7.21505 11.871 7.79908 12.6272 7.88948 12.7545C8.01647 12.9343 9.70899 15.6596 12.3967 16.7082C15.0994 17.7564 15.0994 17.4045 15.5787 17.3668C16.0508 17.3295 17.1363 16.7455 17.3609 16.1163C17.5783 15.51 17.5783 14.978 17.5029 14.8661C17.4132 14.7089 15.212 13.7131 15.212 13.7055V13.7052Z" fill="white"/>
</g>
<defs>
<clipPath id="clip0_14_1672">
<rect width="18.127" height="18" fill="white" transform="translate(3 3.5)"/>
</clipPath>
</defs>
</svg>
