<svg width="65" height="64" viewBox="0 0 65 64" fill="none" xmlns="http://www.w3.org/2000/svg">
<g clip-path="url(#clip0_8_9193)">
<path fill-rule="evenodd" clip-rule="evenodd" d="M16.7194 22.0911C16.4259 22.0911 16.1976 21.8629 16.1976 21.5693V8.62238C16.1976 8.32887 16.4259 8.10059 16.7194 8.10059H46.5811C46.8746 8.10059 47.1029 8.33974 47.1029 8.62238V13.4707C47.1029 13.7642 46.8746 13.9925 46.5811 13.9925C46.2876 13.9925 46.0593 13.7642 46.0593 13.4707V9.14417H17.2412V21.5693C17.2412 21.8629 17.0129 22.0911 16.7194 22.0911Z" fill="#546E7A"/>
<path fill-rule="evenodd" clip-rule="evenodd" d="M10.9144 22.0914C10.2948 22.0914 9.79474 22.5915 9.79474 23.2111V53.3772C9.79474 54.1925 10.4578 54.8665 11.2731 54.8665H48.3313C47.1029 53.9316 46.2985 52.4532 46.2985 50.7791V28.7117C46.2985 28.092 45.7984 27.592 45.1788 27.592H26.7421C26.5247 27.592 26.329 27.4615 26.2529 27.255L24.5897 22.8198C24.4267 22.3741 24.0244 22.0914 23.5461 22.0914H10.9144ZM51.4403 55.8992H11.284C9.89257 55.8992 8.76202 54.7687 8.76202 53.3772V23.2111C8.76202 22.0153 9.72951 21.0479 10.9253 21.0479H23.557C24.4701 21.0479 25.2637 21.6023 25.579 22.4502L27.1117 26.5484H45.2005C46.3854 26.5484 47.3638 27.5159 47.3638 28.7117V50.7791C47.3638 53.0294 49.19 54.8665 51.4511 54.8665C51.7447 54.8665 51.9729 55.0948 51.9729 55.3883C51.9621 55.6709 51.7229 55.8992 51.4403 55.8992Z" fill="#546E7A"/>
<path fill-rule="evenodd" clip-rule="evenodd" d="M51.4402 55.8993C51.1467 55.8993 50.9185 55.671 50.9185 55.3775C50.9185 55.084 51.1467 54.8557 51.4402 54.8557C53.6905 54.8557 55.5276 53.0186 55.5276 50.7683V28.7009C55.5276 28.0812 55.0276 27.5812 54.4079 27.5812H51.4402C51.1576 27.5812 50.9185 27.3529 50.9185 27.0594C50.9185 26.7659 51.1467 26.5376 51.4402 26.5376H54.4079C55.5928 26.5376 56.5712 27.5051 56.5712 28.7009V50.7683C56.5603 53.6056 54.2666 55.8993 51.4402 55.8993Z" fill="#546E7A"/>
<path fill-rule="evenodd" clip-rule="evenodd" d="M51.4403 50.8552H46.8311C46.5376 50.8552 46.3093 50.627 46.3093 50.3335C46.3093 50.0399 46.5376 49.8117 46.8311 49.8117H50.9185V13.9928H22.0895V21.5697C22.0895 21.8632 21.8612 22.0915 21.5677 22.0915C21.2742 22.0915 21.0459 21.8523 21.0459 21.5697V13.471C21.0459 13.1775 21.2742 12.9492 21.5677 12.9492H51.4294C51.7229 12.9492 51.9512 13.1775 51.9512 13.471V50.3335C51.9621 50.627 51.7229 50.8552 51.4403 50.8552Z" fill="#546E7A"/>
<path fill-rule="evenodd" clip-rule="evenodd" d="M41.9828 18.6993H31.0251C30.7316 18.6993 30.5034 18.4711 30.5034 18.1776C30.5034 17.884 30.7316 17.6558 31.0251 17.6558H41.9828C42.2763 17.6558 42.5046 17.884 42.5046 18.1776C42.5046 18.4711 42.2654 18.6993 41.9828 18.6993Z" fill="#546E7A"/>
<path fill-rule="evenodd" clip-rule="evenodd" d="M44.2004 22.4171H28.8076C28.5141 22.4171 28.2858 22.1888 28.2858 21.8953C28.2858 21.6018 28.5141 21.3735 28.8076 21.3735H44.2004C44.4939 21.3735 44.7222 21.6018 44.7222 21.8953C44.7222 22.1888 44.4939 22.4171 44.2004 22.4171Z" fill="#546E7A"/>
<path d="M54.8209 64.0001C49.5709 64.0001 45.3083 59.7251 45.3083 54.4876C45.3083 49.2501 49.5834 44.9751 54.8209 44.9751C60.0584 44.9751 64.3334 49.2501 64.3334 54.4876C64.3334 59.7251 60.0709 64.0001 54.8209 64.0001Z" fill="#EBB52B"/>
<path d="M51.0292 54.6714L53.1958 57.0047L58.6125 51.1714" stroke="#17242B" stroke-width="1.5" stroke-linecap="round" stroke-linejoin="round"/>
</g>
<defs>
<clipPath id="clip0_8_9193">
<rect width="64" height="64" fill="white" transform="translate(0.666626)"/>
</clipPath>
</defs>
</svg>
