<svg width="64" height="64" viewBox="0 0 64 64" fill="none" xmlns="http://www.w3.org/2000/svg">
<path d="M51.4701 57.1964H18.257C17.6259 57.1964 17.1117 56.6822 17.1117 56.0511V54.3332C17.1117 54.0171 17.3682 53.7606 17.6843 53.7606C18.0004 53.7606 18.257 54.0171 18.257 54.3332V56.0511H51.4701V12.5305H48.6069C48.2896 12.5305 48.0342 12.274 48.0342 11.9579C48.0342 11.6418 48.2896 11.3853 48.6069 11.3853H51.4701C52.1011 11.3853 52.6154 11.8995 52.6154 12.5305V56.0511C52.6154 56.6822 52.1011 57.1964 51.4701 57.1964Z" fill="#546E7A"/>
<path d="M45.7436 52.6154H12.5305C11.8995 52.6154 11.3853 52.1011 11.3853 51.4701V16.302L20.8819 6.8042H45.7436C46.3747 6.8042 46.8889 7.31843 46.8889 7.94948V51.4701C46.8889 52.1011 46.3747 52.6154 45.7436 52.6154ZM12.5305 16.7761V51.4701H45.7436V7.94948H21.3572L12.5305 16.7761Z" fill="#546E7A"/>
<path d="M20.5475 17.1115H11.9579C11.7266 17.1115 11.517 16.9718 11.4288 16.7576C11.3395 16.5435 11.3887 16.2972 11.5525 16.1334L20.7147 6.97121C20.9381 6.74788 21.3011 6.74788 21.5244 6.97121C21.7478 7.19454 21.7478 7.55759 21.5244 7.78092L13.3403 15.9662H20.5475V10.8125C20.5475 10.4964 20.8041 10.2398 21.1202 10.2398C21.4362 10.2398 21.6928 10.4964 21.6928 10.8125V15.9662C21.6928 16.5973 21.1786 17.1115 20.5475 17.1115Z" fill="#546E7A"/>
<path d="M39.4446 35.4358H18.8296C18.5135 35.4358 18.257 35.1793 18.257 34.8632C18.257 34.5471 18.5135 34.2905 18.8296 34.2905H39.4446C39.7607 34.2905 40.0173 34.5471 40.0173 34.8632C40.0173 35.1793 39.7607 35.4358 39.4446 35.4358Z" fill="#546E7A"/>
<path d="M39.4446 32.0003H18.8296C18.5135 32.0003 18.257 31.7437 18.257 31.4276C18.257 31.1115 18.5135 30.855 18.8296 30.855H39.4446C39.7607 30.855 40.0173 31.1115 40.0173 31.4276C40.0173 31.7437 39.7607 32.0003 39.4446 32.0003Z" fill="#546E7A"/>
<path d="M39.4446 28.5642H18.8296C18.5135 28.5642 18.257 28.3077 18.257 27.9916C18.257 27.6755 18.5135 27.4189 18.8296 27.4189H39.4446C39.7607 27.4189 40.0173 27.6755 40.0173 27.9916C40.0173 28.3077 39.7607 28.5642 39.4446 28.5642Z" fill="#546E7A"/>
<path d="M33.7182 38.8718H18.8296C18.5135 38.8718 18.257 38.6153 18.257 38.2992C18.257 37.9831 18.5135 37.7266 18.8296 37.7266H33.7182C34.0343 37.7266 34.2909 37.9831 34.2909 38.2992C34.2909 38.6153 34.0343 38.8718 33.7182 38.8718Z" fill="#546E7A"/>
<path d="M33.7183 21.6926H24.556C24.2399 21.6926 23.9834 21.4361 23.9834 21.12C23.9834 20.8039 24.2399 20.5474 24.556 20.5474H33.7183C34.0344 20.5474 34.2909 20.8039 34.2909 21.12C34.2909 21.4361 34.0344 21.6926 33.7183 21.6926Z" fill="#546E7A"/>
<path d="M39.4446 25.1282H18.8296C18.5135 25.1282 18.257 24.8716 18.257 24.5555C18.257 24.2395 18.5135 23.9829 18.8296 23.9829H39.4446C39.7607 23.9829 40.0173 24.2395 40.0173 24.5555C40.0173 24.8716 39.7607 25.1282 39.4446 25.1282Z" fill="#546E7A"/>
<path d="M46.4451 62.5714C41.1951 62.5714 36.9326 58.2964 36.9326 53.0589C36.9326 47.8214 41.2076 43.5464 46.4451 43.5464C51.6826 43.5464 55.9576 47.8214 55.9576 53.0589C55.9576 58.2964 51.6951 62.5714 46.4451 62.5714Z" fill="#EBB52B"/>
<path d="M42.6534 53.2427L44.8201 55.576L50.2368 49.7427" stroke="#17242B" stroke-width="1.5" stroke-linecap="round" stroke-linejoin="round"/>
</svg>
