<svg width="65" height="64" viewBox="0 0 65 64" fill="none" xmlns="http://www.w3.org/2000/svg">
<path d="M45.8042 41.6753C45.4667 41.6753 45.1917 41.4003 45.1917 41.0628V10.6503H13.8792C13.5417 10.6503 13.2667 10.3753 13.2667 10.0378C13.2667 9.70029 13.5417 9.42529 13.8792 9.42529H45.3792C45.9542 9.42529 46.4167 9.88779 46.4167 10.4628V41.0628C46.4167 41.4003 46.1417 41.6753 45.8042 41.6753Z" fill="#546E7A"/>
<path d="M35.2917 55.1376H14.3167C13.7417 55.1376 13.2792 54.6751 13.2792 54.1001V10.0251C13.2792 9.6876 13.5542 9.4126 13.8917 9.4126C14.2292 9.4126 14.5042 9.6876 14.5042 10.0251V53.9251H35.2917C35.6292 53.9251 35.9042 54.2001 35.9042 54.5376C35.9042 54.8751 35.6292 55.1376 35.2917 55.1376Z" fill="#546E7A"/>
<path d="M49.0917 43.9502C48.7542 43.9502 48.4792 43.6752 48.4792 43.3377V6.43766C48.4792 6.40016 48.4542 6.37516 48.4417 6.36266C48.4167 6.33766 48.4042 6.35016 48.3917 6.35016H48.3792L13.9542 10.6377C13.6167 10.6752 13.3167 10.4377 13.2667 10.1127C13.2292 9.77516 13.4667 9.47516 13.7917 9.42516L48.2167 5.13766C48.5792 5.08766 48.9542 5.20016 49.2292 5.43766C49.5167 5.68766 49.6792 6.05016 49.6792 6.43766V43.3377C49.6917 43.6752 49.4292 43.9502 49.0917 43.9502Z" fill="#546E7A"/>
<path d="M29.8541 37.8129C23.4416 37.8129 18.2416 32.6004 18.2416 26.2004C18.2416 19.8004 23.4541 14.5879 29.8541 14.5879C36.2541 14.5879 41.4666 19.8004 41.4666 26.2004C41.4666 32.6004 36.2666 37.8129 29.8541 37.8129ZM29.8541 15.8004C24.1166 15.8004 19.4541 20.4629 19.4541 26.2004C19.4541 31.9379 24.1166 36.6004 29.8541 36.6004C35.5916 36.6004 40.2541 31.9379 40.2541 26.2004C40.2541 20.4629 35.5916 15.8004 29.8541 15.8004Z" fill="#546E7A"/>
<path d="M29.8541 37.8129C26.5541 37.8129 23.9791 32.7129 23.9791 26.2004C23.9791 19.6879 26.5541 14.5879 29.8541 14.5879C33.1541 14.5879 35.7291 19.6879 35.7291 26.2004C35.7291 32.7129 33.1541 37.8129 29.8541 37.8129ZM29.8541 15.8004C27.3291 15.8004 25.2041 20.5629 25.2041 26.2004C25.2041 31.8379 27.3416 36.6004 29.8541 36.6004C32.3666 36.6004 34.5041 31.8379 34.5041 26.2004C34.5041 20.5629 32.3791 15.8004 29.8541 15.8004Z" fill="#546E7A"/>
<path d="M40.8666 26.8129H18.8416C18.5041 26.8129 18.2291 26.5379 18.2291 26.2004C18.2291 25.8629 18.5041 25.5879 18.8416 25.5879H40.8666C41.2041 25.5879 41.4791 25.8629 41.4791 26.2004C41.4791 26.5379 41.2041 26.8129 40.8666 26.8129Z" fill="#546E7A"/>
<path d="M29.8416 22.0128C28.1916 22.0128 26.5916 21.8378 25.0916 21.4878C23.5416 21.1378 22.1041 20.5878 20.9166 19.8753C20.6291 19.7003 20.5291 19.3253 20.7041 19.0378C20.8791 18.7503 21.2541 18.6503 21.5416 18.8253C22.6041 19.4628 23.9291 19.9753 25.3541 20.2878C26.7666 20.6128 28.2666 20.7878 29.8291 20.7878C31.3916 20.7878 32.8916 20.6253 34.2916 20.2878C35.7541 19.9503 37.0791 19.4378 38.1166 18.8253C38.4041 18.6503 38.7791 18.7503 38.9541 19.0378C39.1291 19.3253 39.0291 19.7003 38.7416 19.8753C37.6041 20.5628 36.1541 21.1128 34.5666 21.4878C33.0916 21.8253 31.4916 22.0128 29.8416 22.0128Z" fill="#546E7A"/>
<path d="M38.4666 33.6754C38.3541 33.6754 38.2541 33.6504 38.1541 33.5879C37.0916 32.9504 35.7666 32.4379 34.3416 32.1254C32.9291 31.8004 31.4291 31.6254 29.8666 31.6254C28.3041 31.6254 26.8041 31.7879 25.4041 32.1254C23.9416 32.4629 22.6166 32.9754 21.5791 33.5879C21.2916 33.7629 20.9166 33.6629 20.7416 33.3754C20.5666 33.0879 20.6666 32.7129 20.9541 32.5379C22.0916 31.8504 23.5416 31.3004 25.1291 30.9254C26.6291 30.5754 28.2166 30.4004 29.8791 30.4004C31.5291 30.4004 33.1291 30.5754 34.6291 30.9254C36.1791 31.2754 37.6166 31.8254 38.8041 32.5379C39.0916 32.7129 39.1916 33.0879 39.0166 33.3754C38.8791 33.5629 38.6791 33.6754 38.4666 33.6754Z" fill="#546E7A"/>
<path d="M37.5916 42.5756H20.7166C20.3791 42.5756 20.1041 42.3006 20.1041 41.9631C20.1041 41.6256 20.3791 41.3506 20.7166 41.3506H37.5916C37.9291 41.3506 38.2041 41.6256 38.2041 41.9631C38.2041 42.3131 37.9291 42.5756 37.5916 42.5756Z" fill="#546E7A"/>
<path d="M34.4416 46.2758H23.3916C23.0541 46.2758 22.7791 46.0008 22.7791 45.6633C22.7791 45.3258 23.0541 45.0508 23.3916 45.0508H34.4416C34.7791 45.0508 35.0541 45.3258 35.0541 45.6633C35.0541 46.0008 34.7791 46.2758 34.4416 46.2758Z" fill="#546E7A"/>
<path d="M33.6416 49.9755H25.6167C25.2792 49.9755 25.0042 49.7005 25.0042 49.363C25.0042 49.0255 25.2792 48.7505 25.6167 48.7505H33.6416C33.9791 48.7505 34.2542 49.0255 34.2542 49.363C34.2542 49.7005 33.9791 49.9755 33.6416 49.9755Z" fill="#546E7A"/>
<path d="M42.5541 58.8751C37.3041 58.8751 33.0416 54.6001 33.0416 49.3626C33.0416 44.1251 37.3166 39.8501 42.5541 39.8501C47.7916 39.8501 52.0666 44.1251 52.0666 49.3626C52.0666 54.6001 47.8041 58.8751 42.5541 58.8751Z" fill="#EBB52B"/>
<path d="M38.7625 49.5464L40.9291 51.8797L46.3458 46.0464" stroke="#17242B" stroke-width="1.5" stroke-linecap="round" stroke-linejoin="round"/>
</svg>
