<svg width="64" height="64" viewBox="0 0 64 64" fill="none" xmlns="http://www.w3.org/2000/svg">
<path d="M19.1459 41.8525L20.1132 42.8814L20.3349 43.1172L20.6408 43.0114L21.9755 42.5499L22.3538 43.9105L22.4406 44.2224L22.7606 44.2709L24.1568 44.4825L23.8596 45.863L23.7914 46.1795L24.0523 46.3711L25.1902 47.2074L24.2855 48.2916L24.0781 48.5402L24.22 48.8311L24.839 50.1004L23.534 50.64L23.2348 50.7637L23.2252 51.0873L23.1835 52.4988L21.7772 52.3701L21.4548 52.3406L21.296 52.6227L20.603 53.8531L19.4176 53.0857L19.1459 52.9097L18.8741 53.0857L17.6887 53.8531L16.9958 52.6227L16.8369 52.3406L16.5146 52.3701L15.1083 52.4988L15.0665 51.0873L15.0569 50.7637L14.7578 50.64L13.4528 50.1004L14.0718 48.8311L14.2137 48.5402L14.0063 48.2916L13.1015 47.2074L14.2394 46.3711L14.5003 46.1795L14.4322 45.863L14.1349 44.4825L15.5311 44.2709L15.8512 44.2224L15.9379 43.9105L16.3163 42.5499L17.6509 43.0114L17.9568 43.1172L18.1786 42.8814L19.1459 41.8525Z" stroke="#546E7A"/>
<rect x="10.0073" y="4.13574" width="39.3198" height="54.3323" rx="0.5" stroke="#546E7A"/>
<path fill-rule="evenodd" clip-rule="evenodd" d="M43.14 15.462L30.2354 20.3648C29.8532 20.5099 29.4814 20.5099 29.0992 20.3648L18.9842 16.5215L29.6965 15.4349C29.8565 15.4188 29.9733 15.2757 29.9568 15.1157C29.9412 14.9554 29.7978 14.8393 29.6381 14.8551L17.7677 16.0593L16.1947 15.462C15.9917 15.3848 15.976 15.1998 15.976 15.145C15.976 15.0902 15.9917 14.9053 16.1947 14.828L29.0992 9.92527C29.2905 9.85268 29.4785 9.8165 29.6672 9.8165C29.856 9.8165 30.0442 9.85268 30.2355 9.92556L43.14 14.828C43.3428 14.9053 43.3587 15.0902 43.3587 15.145C43.3586 15.1998 43.3427 15.3848 43.14 15.462ZM38.5532 23.5106V17.8279L30.4421 20.9094C30.1854 21.0072 29.9262 21.0557 29.6672 21.0557C29.408 21.0557 29.1494 21.0072 28.8924 20.9094L20.7815 17.8279V23.5106C20.7815 23.8458 20.9276 24.1224 21.2038 24.3113C23.074 25.5883 26.2375 26.3508 29.6672 26.3508C33.0972 26.3508 36.2607 25.5883 38.131 24.3113C38.4076 24.1225 38.5532 23.8458 38.5532 23.5106ZM18.4091 22.8197V26.1982C18.4091 26.3853 18.257 26.5374 18.0707 26.5374H17.386C17.1989 26.5374 17.0468 26.3853 17.0468 26.1982V22.8197C17.0468 22.4446 17.3529 22.1386 17.7279 22.1386C18.1038 22.1386 18.4091 22.4446 18.4091 22.8197ZM43.3469 14.2836L30.4421 9.38089C29.9283 9.18554 29.4064 9.18554 28.8924 9.38089L15.9879 14.2836C15.6265 14.4206 15.3936 14.759 15.3936 15.1451C15.3936 15.5311 15.6264 15.8695 15.9879 16.0067L17.4367 16.5572V21.5906C16.8802 21.7229 16.4643 22.2233 16.4643 22.8197V26.1983C16.4643 26.7065 16.878 27.1199 17.386 27.1199H18.0707C18.5787 27.1199 18.9916 26.7065 18.9916 26.1983V22.8197C18.9916 22.2233 18.5762 21.723 18.0192 21.5906V16.7786L20.1988 17.6066V23.5108C20.1988 24.0392 20.4388 24.4949 20.8752 24.7924C22.8386 26.1331 26.1251 26.9336 29.6672 26.9336C33.2096 26.9336 36.4961 26.1331 38.4595 24.7924C38.8957 24.4949 39.136 24.0392 39.136 23.5108V17.6062L43.3469 16.0067C43.708 15.8694 43.9411 15.531 43.9411 15.145C43.9411 14.759 43.708 14.4206 43.3469 14.2836Z" fill="#546E7A"/>
<path fill-rule="evenodd" clip-rule="evenodd" d="M30.513 9.19373C29.9535 8.98099 29.381 8.981 28.8213 9.19374L30.513 9.19373ZM30.513 9.19373L43.4177 14.0964C43.4177 14.0964 43.4177 14.0964 43.4177 14.0964C43.8566 14.2629 44.141 14.6758 44.141 15.1448C44.141 15.6138 43.8566 16.0267 43.4178 16.1934L39.3359 17.744V23.5106C39.3359 24.105 39.0631 24.6226 38.5721 24.9575C36.5629 26.3294 33.2312 27.1334 29.6671 27.1334C26.1034 27.1334 22.7717 26.3294 20.7625 24.9575C20.2712 24.6226 19.9987 24.1049 19.9987 23.5106V17.7444L18.2191 17.0683V21.4414C18.7851 21.6439 19.1915 22.1841 19.1915 22.8195V26.1981C19.1915 26.8166 18.6892 27.3198 18.0706 27.3198H17.3859C16.7675 27.3198 16.2643 26.8168 16.2643 26.1981V22.8195C16.2643 22.1841 16.6711 21.6439 17.2366 21.4415V16.695L15.9168 16.1935C15.9168 16.1935 15.9168 16.1935 15.9168 16.1935C15.4776 16.0267 15.1935 15.6138 15.1935 15.1449C15.1935 14.6759 15.4776 14.2629 15.9169 14.0964L28.8213 9.19374M30.3709 9.56763C29.903 9.3897 29.4316 9.38969 28.9634 9.56764L16.0588 14.4704C15.7753 14.5778 15.5935 14.8417 15.5935 15.1449C15.5935 15.448 15.7751 15.7119 16.0588 15.8196L17.6366 16.419V21.7484L17.4829 21.785C17.014 21.8965 16.6643 22.3183 16.6643 22.8195V26.1981C16.6643 26.5958 16.9884 26.9198 17.3859 26.9198H18.0706C18.4679 26.9198 18.7915 26.5961 18.7915 26.1981V22.8195C18.7915 22.3182 18.4422 21.8965 17.9729 21.785L17.8191 21.7485V16.4885L20.3987 17.4684V23.5106C20.3987 23.9731 20.6062 24.3668 20.9878 24.627C22.9054 25.9363 26.1467 26.7334 29.6671 26.7334C33.1879 26.7334 36.4291 25.9364 38.3466 24.6271C38.7281 24.3669 38.9359 23.9731 38.9359 23.5106V17.4681L43.2757 15.8195C43.2757 15.8195 43.2757 15.8195 43.2757 15.8195C43.5591 15.7118 43.741 15.4478 43.741 15.1448C43.741 14.8418 43.5591 14.5779 43.2759 14.4704L30.3709 9.56763ZM29.1701 10.1121C29.1701 10.1121 29.1701 10.1121 29.1701 10.1121L16.2657 15.0147C16.2182 15.0328 16.2002 15.0583 16.1904 15.0793C16.178 15.1059 16.176 15.1336 16.176 15.1448C16.176 15.156 16.178 15.1837 16.1904 15.2103C16.2002 15.2314 16.2182 15.2568 16.2657 15.2749L17.7944 15.8554L29.6179 14.6559C29.8862 14.6293 30.129 14.8243 30.1557 15.0956C30.1832 15.3655 29.9863 15.6064 29.7166 15.6337C29.7166 15.6337 29.7167 15.6337 29.7166 15.6337L19.8461 16.6349L29.1702 20.1776C29.5066 20.3054 29.8279 20.3054 30.1643 20.1776C30.1643 20.1776 30.1643 20.1776 30.1643 20.1776L43.0687 15.2749M29.1701 10.1121C29.3408 10.0473 29.5048 10.0163 29.6671 10.0163L29.1701 10.1121ZM29.0282 9.73809C29.24 9.65769 29.452 9.6163 29.6671 9.6163C29.8822 9.6163 30.0945 9.65766 30.3064 9.73841M30.3064 9.73841L43.211 14.6409C43.5353 14.7644 43.5586 15.0671 43.5586 15.1448C43.5585 15.2223 43.5354 15.5251 43.2111 15.6487L30.3064 20.5515C29.8784 20.7141 29.4561 20.7141 29.0281 20.5515L18.913 16.7083L18.9639 16.3224L29.6763 15.2357C29.7263 15.2307 29.7629 15.1859 29.7578 15.136L29.7576 15.1349C29.7529 15.0859 29.7087 15.0489 29.6579 15.0539C29.6579 15.0539 29.6579 15.0539 29.6579 15.0539L17.7408 16.2628L16.1236 15.6488C15.7988 15.5252 15.776 15.2222 15.776 15.1448C15.776 15.0673 15.7987 14.7645 16.1235 14.6409L29.0282 9.73809M29.6671 10.0163C29.8295 10.0163 29.9937 10.0473 30.1642 10.1123L29.6671 10.0163ZM30.1642 10.1123L43.0687 15.0147L30.1642 10.1123ZM20.5815 17.5377L28.9634 20.7222C29.1988 20.8118 29.4335 20.8555 29.6671 20.8555C29.9006 20.8555 30.1358 20.8118 30.3708 20.7223L38.7531 17.5377V23.5104C38.7531 23.9114 38.5752 24.2501 38.2436 24.4763C36.3271 25.7849 33.118 26.5507 29.6671 26.5507C26.2165 26.5507 23.0074 25.7849 21.0909 24.4762C20.7602 24.2501 20.5815 23.9116 20.5815 23.5104V17.5377ZM28.8212 21.0961L20.9815 18.1176V23.5104C20.9815 23.7795 21.0949 23.9944 21.3165 24.1459C23.1404 25.3914 26.2583 26.1507 29.6671 26.1507C33.0763 26.1507 36.1942 25.3914 38.0181 24.1459C38.2399 23.9946 38.3531 23.7798 38.3531 23.5104V18.1176L30.5132 21.0961M17.7279 22.3384C17.4632 22.3384 17.2467 22.5549 17.2467 22.8195V26.198C17.2467 26.2747 17.3093 26.3372 17.3859 26.3372H18.0706C18.1462 26.3372 18.209 26.275 18.209 26.198V22.8195C18.209 22.5547 17.9931 22.3384 17.7279 22.3384ZM16.8467 22.8195C16.8467 22.3339 17.2423 21.9384 17.7279 21.9384C18.2144 21.9384 18.609 22.3341 18.609 22.8195V26.198C18.609 26.4953 18.3677 26.7372 18.0706 26.7372H17.3859C17.0883 26.7372 16.8467 26.4956 16.8467 26.198V22.8195Z" fill="#546E7A"/>
<line x1="13.876" y1="32.8511" x2="45.2253" y2="32.8511" stroke="#546E7A" stroke-linecap="round"/>
<line x1="13.876" y1="37.7432" x2="45.2253" y2="37.7432" stroke="#546E7A" stroke-linecap="round"/>
<line x1="25.9502" y1="42.3228" x2="45.2253" y2="42.3228" stroke="#546E7A" stroke-linecap="round"/>
<line x1="25.9502" y1="53.2168" x2="45.2253" y2="53.2168" stroke="#546E7A" stroke-linecap="round"/>
<path d="M27.3304 47.9414H45.7253" stroke="#546E7A" stroke-linecap="round"/>
<path d="M46.4451 62.5714C41.1951 62.5714 36.9326 58.2964 36.9326 53.0589C36.9326 47.8214 41.2076 43.5464 46.4451 43.5464C51.6826 43.5464 55.9576 47.8214 55.9576 53.0589C55.9576 58.2964 51.6951 62.5714 46.4451 62.5714Z" fill="#EBB52B"/>
<path d="M42.6534 53.2427L44.8201 55.576L50.2368 49.7427" stroke="#17242B" stroke-width="1.5" stroke-linecap="round" stroke-linejoin="round"/>
</svg>
