<svg width="65" height="64" viewBox="0 0 65 64" fill="none" xmlns="http://www.w3.org/2000/svg">
<path d="M47.7809 7.62331L46.1575 10.0527H36.8562V8.18144H32.9095C32.7407 6.39872 31.2362 5 29.4107 5C27.5853 5 26.0801 6.39877 25.912 8.18064H21.9659V10.0519L11.6742 10.0521V58.9998H47.1483V19.8542L52.9937 11.1038L47.7809 7.62331ZM22.6331 10.0521V8.84747H26.5637V8.51413C26.5637 6.94411 27.841 5.66683 29.411 5.66683C30.9811 5.66683 32.2584 6.94411 32.2584 8.51413V8.84747H36.189V11.9242L22.6332 11.924L22.6331 10.0521ZM46.4817 58.3331H12.3409V10.7187H21.9665V12.5908H36.8566V10.7187H45.7126L36.6678 24.2595L36.4538 24.5801L36.3732 24.8647L33.6699 34.3895L41.4336 28.2461L41.6657 28.0633L41.8796 27.7427L46.4817 20.8542L46.4817 58.3331ZM36.9553 25.2531L38.904 26.5543L40.8519 27.8556L34.8748 32.585L36.9553 25.2531ZM46.5382 19.5678L41.3261 27.371L39.2736 25.9997L37.2224 24.6291L46.6144 10.5705L46.7471 10.3711L46.9604 10.0517L47.965 8.54711L52.0689 11.2878L46.5382 19.5678Z" fill="#546E7A"/>
<path fill-rule="evenodd" clip-rule="evenodd" d="M25.6914 7.93064C25.9724 6.13095 27.5331 4.75 29.4107 4.75C31.2885 4.75 32.8486 6.13106 33.13 7.93144H37.1062V9.80269H46.0239L47.7118 7.27662L53.3404 11.0348L47.3983 19.9301V59.2498H11.4242V9.80211L21.7159 9.8019V7.93064H25.6914ZM29.4107 5.25C27.7155 5.25 26.317 6.54942 26.1608 8.20413L26.1395 8.43064H22.2159V10.3019L11.9242 10.3021V58.7498H46.8983V19.7784L52.6469 11.1729L47.8499 7.96999L46.2911 10.3027H36.6062V8.43144H32.682L32.6606 8.205C32.5039 6.54928 31.1058 5.25 29.4107 5.25ZM29.411 5.91683C27.9791 5.91683 26.8137 7.08218 26.8137 8.51413V9.09747H22.8831L22.8832 11.674L35.939 11.6742V9.09747H32.0084V8.51413C32.0084 7.08218 30.843 5.91683 29.411 5.91683ZM26.3137 8.51413C26.3137 6.80604 27.703 5.41683 29.411 5.41683C31.1191 5.41683 32.5084 6.80604 32.5084 8.51413V8.59747H36.439V12.1742L22.3833 12.1739L22.3831 8.59747H26.3137V8.51413ZM47.8959 8.20036L52.4157 11.2187L41.3951 27.7178L39.1347 26.2076L36.8756 24.6981L46.4062 10.4319L46.539 10.2326L46.7525 9.91288L47.8959 8.20036ZM48.0341 8.89387L47.1683 10.1905L46.9552 10.5096L46.8225 10.709L37.5691 24.5601L39.4125 25.7919L41.2571 27.0242L51.7222 11.3568L48.0341 8.89387ZM12.0909 10.4687H22.2165V12.3408H36.6066V10.4687H46.1802L36.8757 24.3983L36.6836 24.6862L34.1217 33.7132L41.2785 28.05L41.4798 27.8915L41.6717 27.604L46.7317 20.0299L46.7317 58.5831H12.0909V10.4687ZM12.5909 10.9687V58.0831H46.2317L46.2317 21.6784L42.0876 27.8815L41.8516 28.2352L41.5887 28.4421L33.218 35.0659L36.224 24.4741L36.4598 24.1208L45.245 10.9687H37.1066V12.8408H21.7165V10.9687H12.5909ZM36.8085 24.8545L39.0428 26.3464L41.2764 27.8385L34.4231 33.2612L36.8085 24.8545ZM37.102 25.6517L35.3266 31.9087L40.4274 27.8727L38.7652 26.7623L37.102 25.6517Z" fill="#546E7A"/>
<path d="M17.9078 26.4863H30.5546V27.153H17.9078V26.4863Z" fill="#546E7A"/>
<path fill-rule="evenodd" clip-rule="evenodd" d="M17.6578 26.2363H30.8046V27.403H17.6578V26.2363ZM18.1578 26.7363V26.903H30.3046V26.7363H18.1578Z" fill="#546E7A"/>
<path d="M17.9078 33.1528H30.519V33.8195H17.9078V33.1528Z" fill="#546E7A"/>
<path fill-rule="evenodd" clip-rule="evenodd" d="M17.6578 32.9028H30.769V34.0695H17.6578V32.9028ZM18.1578 33.4028V33.5695H30.269V33.4028H18.1578Z" fill="#546E7A"/>
<path d="M17.9078 39.8193H41.1665V40.486H17.9078V39.8193Z" fill="#546E7A"/>
<path fill-rule="evenodd" clip-rule="evenodd" d="M17.6578 39.5693H41.4165V40.736H17.6578V39.5693ZM18.1578 40.0693V40.236H40.9165V40.0693H18.1578Z" fill="#546E7A"/>
<path d="M17.9078 46.4863H41.1665V47.153H17.9078V46.4863Z" fill="#546E7A"/>
<path fill-rule="evenodd" clip-rule="evenodd" d="M17.6578 46.2363H41.4165V47.403H17.6578V46.2363ZM18.1578 46.7363V46.903H40.9165V46.7363H18.1578Z" fill="#546E7A"/>
<path d="M46.4451 62.5714C41.1951 62.5714 36.9326 58.2964 36.9326 53.0589C36.9326 47.8214 41.2076 43.5464 46.4451 43.5464C51.6826 43.5464 55.9576 47.8214 55.9576 53.0589C55.9576 58.2964 51.6951 62.5714 46.4451 62.5714Z" fill="#EBB52B"/>
<path d="M42.6534 53.2427L44.8201 55.576L50.2368 49.7427" stroke="#17242B" stroke-width="1.5" stroke-linecap="round" stroke-linejoin="round"/>
</svg>
